<?xml version="1.0" encoding="utf-8"?>
<!-- Generator: Adobe Illustrator 23.0.2, SVG Export Plug-In . SVG Version: 6.00 Build 0)  -->
<svg version="1.1" id="Layer_1" xmlns="http://www.w3.org/2000/svg" xmlns:xlink="http://www.w3.org/1999/xlink" x="0px" y="0px"
	 width="1920px" height="732px" viewBox="0 0 1920 732" style="enable-background:new 0 0 1920 732;" xml:space="preserve">
<style type="text/css">
	.st0{display:none;clip-path:url(#SVGID_2_);fill:url(#SVGID_3_);}
	.st1{clip-path:url(#SVGID_2_);fill:none;stroke:#f87666;stroke-width:5;stroke-linecap:square;}
</style>
<g>
	<defs>
		<rect id="SVGID_1_" width="1920" height="732"/>
	</defs>
	<clipPath id="SVGID_2_">
		<use xlink:href="#SVGID_1_"  style="overflow:visible;"/>
	</clipPath>
	
		<linearGradient id="SVGID_3_" gradientUnits="userSpaceOnUse" x1="-767.0731" y1="1489.2073" x2="-766.0731" y2="1489.2073" gradientTransform="matrix(1920 0 0 -1920 1472780.25 2859644)">
		<stop  offset="0" style="stop-color:#f87666"/>
		<stop  offset="1" style="stop-color:#f87666"/>
	</linearGradient>
	<rect y="0" class="st0" width="1920" height="732"/>
	<line class="st1" x1="-189.3" y1="-3.1" x2="2109.3" y2="-368.2"/>
	<line class="st1" x1="-189.3" y1="9" x2="2109.3" y2="-356.1"/>
	<line class="st1" x1="-189.3" y1="21.1" x2="2109.3" y2="-344"/>
	<line class="st1" x1="-189.3" y1="33.2" x2="2109.3" y2="-331.9"/>
	<line class="st1" x1="-189.3" y1="45.3" x2="2109.3" y2="-319.8"/>
	<line class="st1" x1="-189.3" y1="57.4" x2="2109.3" y2="-307.7"/>
	<line class="st1" x1="-189.3" y1="69.5" x2="2109.3" y2="-295.7"/>
	<line class="st1" x1="-189.3" y1="81.5" x2="2109.3" y2="-283.6"/>
	<line class="st1" x1="-189.3" y1="93.6" x2="2109.3" y2="-271.5"/>
	<line class="st1" x1="-189.3" y1="105.7" x2="2109.3" y2="-259.4"/>
	<line class="st1" x1="-189.3" y1="117.8" x2="2109.3" y2="-247.3"/>
	<line class="st1" x1="-189.3" y1="129.9" x2="2109.3" y2="-235.2"/>
	<line class="st1" x1="-189.3" y1="142" x2="2109.3" y2="-223.1"/>
	<line class="st1" x1="-189.3" y1="154.1" x2="2109.3" y2="-211"/>
	<line class="st1" x1="-189.3" y1="166.2" x2="2109.3" y2="-198.9"/>
	<line class="st1" x1="-189.3" y1="178.3" x2="2109.3" y2="-186.8"/>
	<line class="st1" x1="-189.3" y1="190.4" x2="2109.3" y2="-174.7"/>
	<line class="st1" x1="-189.3" y1="202.5" x2="2109.3" y2="-162.6"/>
	<line class="st1" x1="-189.3" y1="214.6" x2="2109.3" y2="-150.5"/>
	<line class="st1" x1="-189.3" y1="226.7" x2="2109.3" y2="-138.4"/>
	<line class="st1" x1="-189.3" y1="238.8" x2="2109.3" y2="-126.3"/>
	<line class="st1" x1="-189.3" y1="250.9" x2="2109.3" y2="-114.2"/>
	<line class="st1" x1="-189.3" y1="263" x2="2109.3" y2="-102.1"/>
	<line class="st1" x1="-189.3" y1="275.1" x2="2109.3" y2="-90"/>
	<line class="st1" x1="-189.3" y1="287.2" x2="2109.3" y2="-78"/>
	<line class="st1" x1="-189.3" y1="299.2" x2="2109.3" y2="-65.9"/>
	<line class="st1" x1="-189.3" y1="311.3" x2="2109.3" y2="-53.8"/>
	<line class="st1" x1="-189.3" y1="323.4" x2="2109.3" y2="-41.7"/>
	<line class="st1" x1="-189.3" y1="335.5" x2="2109.3" y2="-29.6"/>
	<line class="st1" x1="-189.3" y1="347.6" x2="2109.3" y2="-17.5"/>
	<line class="st1" x1="-189.3" y1="359.7" x2="2109.3" y2="-5.4"/>
	<line class="st1" x1="-189.3" y1="371.8" x2="2109.3" y2="6.7"/>
	<line class="st1" x1="-189.3" y1="383.9" x2="2109.3" y2="18.8"/>
	<line class="st1" x1="-189.3" y1="396" x2="2109.3" y2="30.9"/>
	<line class="st1" x1="-189.3" y1="408.1" x2="2109.3" y2="43"/>
	<line class="st1" x1="-189.3" y1="420.2" x2="2109.3" y2="55.1"/>
	<line class="st1" x1="-189.3" y1="432.3" x2="2109.3" y2="67.2"/>
	<line class="st1" x1="-189.3" y1="444.4" x2="2109.3" y2="79.3"/>
	<line class="st1" x1="-189.3" y1="456.5" x2="2109.3" y2="91.4"/>
	<line class="st1" x1="-189.3" y1="468.6" x2="2109.3" y2="103.5"/>
	<line class="st1" x1="-189.3" y1="480.7" x2="2109.3" y2="115.6"/>
	<line class="st1" x1="-189.3" y1="492.8" x2="2109.3" y2="127.7"/>
	<line class="st1" x1="-189.3" y1="504.9" x2="2109.3" y2="139.7"/>
	<line class="st1" x1="-189.3" y1="516.9" x2="2109.3" y2="151.8"/>
	<line class="st1" x1="-189.3" y1="529" x2="2109.3" y2="163.9"/>
	<line class="st1" x1="-189.3" y1="541.1" x2="2109.3" y2="176"/>
	<line class="st1" x1="-189.3" y1="553.2" x2="2109.3" y2="188.1"/>
	<line class="st1" x1="-189.3" y1="565.3" x2="2109.3" y2="200.2"/>
	<line class="st1" x1="-189.3" y1="577.4" x2="2109.3" y2="212.3"/>
	<line class="st1" x1="-189.3" y1="589.5" x2="2109.3" y2="224.4"/>
	<line class="st1" x1="-189.3" y1="601.6" x2="2109.3" y2="236.5"/>
	<line class="st1" x1="-189.3" y1="613.7" x2="2109.3" y2="248.6"/>
	<line class="st1" x1="-189.3" y1="625.8" x2="2109.3" y2="260.7"/>
	<line class="st1" x1="-189.3" y1="637.9" x2="2109.3" y2="272.8"/>
	<line class="st1" x1="-189.3" y1="650" x2="2109.3" y2="284.9"/>
	<line class="st1" x1="-189.3" y1="662.1" x2="2109.3" y2="297"/>
	<line class="st1" x1="-189.3" y1="674.2" x2="2109.3" y2="309.1"/>
	<line class="st1" x1="-189.3" y1="686.3" x2="2109.3" y2="321.2"/>
	<line class="st1" x1="-189.3" y1="698.4" x2="2109.3" y2="333.3"/>
	<line class="st1" x1="-189.3" y1="710.5" x2="2109.3" y2="345.4"/>
	<line class="st1" x1="-189.3" y1="722.6" x2="2109.3" y2="357.4"/>
	<line class="st1" x1="-189.3" y1="734.6" x2="2109.3" y2="369.5"/>
	<line class="st1" x1="-189.3" y1="746.7" x2="2109.3" y2="381.6"/>
	<line class="st1" x1="-189.3" y1="758.8" x2="2109.3" y2="393.7"/>
	<line class="st1" x1="-189.3" y1="770.9" x2="2109.3" y2="405.8"/>
	<line class="st1" x1="-189.3" y1="783" x2="2109.3" y2="417.9"/>
	<line class="st1" x1="-189.3" y1="795.1" x2="2109.3" y2="430"/>
	<line class="st1" x1="-189.3" y1="807.2" x2="2109.3" y2="442.1"/>
	<line class="st1" x1="-189.3" y1="819.3" x2="2109.3" y2="454.2"/>
	<line class="st1" x1="-189.3" y1="831.4" x2="2109.3" y2="466.3"/>
	<line class="st1" x1="-189.3" y1="843.5" x2="2109.3" y2="478.4"/>
	<line class="st1" x1="-189.3" y1="855.6" x2="2109.3" y2="490.5"/>
	<line class="st1" x1="-189.3" y1="867.7" x2="2109.3" y2="502.6"/>
	<line class="st1" x1="-189.3" y1="879.8" x2="2109.3" y2="514.7"/>
	<line class="st1" x1="-189.3" y1="891.9" x2="2109.3" y2="526.8"/>
	<line class="st1" x1="-189.3" y1="904" x2="2109.3" y2="538.9"/>
	<line class="st1" x1="-189.3" y1="916.1" x2="2109.3" y2="551"/>
	<line class="st1" x1="-189.3" y1="928.2" x2="2109.3" y2="563.1"/>
	<line class="st1" x1="-189.3" y1="940.3" x2="2109.3" y2="575.1"/>
	<line class="st1" x1="-189.3" y1="952.3" x2="2109.3" y2="587.2"/>
	<line class="st1" x1="-189.3" y1="964.4" x2="2109.3" y2="599.3"/>
	<line class="st1" x1="-189.3" y1="976.5" x2="2109.3" y2="611.4"/>
	<line class="st1" x1="-189.3" y1="988.6" x2="2109.3" y2="623.5"/>
	<line class="st1" x1="-189.3" y1="1000.7" x2="2109.3" y2="635.6"/>
	<line class="st1" x1="-189.3" y1="1012.8" x2="2109.3" y2="647.7"/>
	<line class="st1" x1="-189.3" y1="1024.9" x2="2109.3" y2="659.8"/>
	<line class="st1" x1="-189.3" y1="1037" x2="2109.3" y2="671.9"/>
	<line class="st1" x1="-189.3" y1="1049.1" x2="2109.3" y2="684"/>
	<line class="st1" x1="-189.3" y1="1061.2" x2="2109.3" y2="696.1"/>
	<line class="st1" x1="-189.3" y1="1073.3" x2="2109.3" y2="708.2"/>
	<line class="st1" x1="-189.3" y1="1085.4" x2="2109.3" y2="720.3"/>
	<line class="st1" x1="-189.3" y1="1097.5" x2="2109.3" y2="732.4"/>
</g>
</svg>
